<svg xmlns="http://www.w3.org/2000/svg" viewBox="0 0 360 220" role="img" aria-label="Trator preparando o solo">
  <defs>
    <linearGradient id="land-sky" x1="0" x2="1" y1="0" y2="1">
      <stop offset="0" stop-color="#f7fbff"/>
      <stop offset="1" stop-color="#eef7ee"/>
    </linearGradient>
    <linearGradient id="tractor-body" x1="90" x2="270" y1="58" y2="140" gradientUnits="userSpaceOnUse">
      <stop offset="0" stop-color="#49b64f"/>
      <stop offset="1" stop-color="#15803d"/>
    </linearGradient>
    <filter id="soft-shadow" x="-20%" y="-20%" width="140%" height="160%">
      <feDropShadow dx="0" dy="8" stdDeviation="8" flood-color="#14532d" flood-opacity=".18"/>
    </filter>
  </defs>
  <rect width="360" height="220" rx="28" fill="url(#land-sky)"/>
  <path d="M32 164c43-18 89-24 138-18 55 7 94 1 158-24v74H32z" fill="#d8b883" opacity=".95"/>
  <path d="M24 179c55-18 116-22 179-12 43 7 83 3 133-15" fill="none" stroke="#8a5a2b" stroke-width="5" stroke-linecap="round" opacity=".55"/>
  <path d="M33 193c53-12 110-13 174-3 47 7 83 3 124-10" fill="none" stroke="#8a5a2b" stroke-width="4" stroke-linecap="round" opacity=".38"/>
  <g filter="url(#soft-shadow)">
    <path d="M115 65h63c15 0 27 12 27 27v35h-92V67c0-1 1-2 2-2z" fill="#2f9e44"/>
    <path d="M126 75h43c12 0 21 9 21 21v20h-64z" fill="#d9f2ff"/>
    <path d="M120 65h52l-8-22h-32z" fill="#0f6b38"/>
    <path d="M196 112h60c16 0 29 11 33 26l4 17H177l6-27c2-9 7-16 13-16z" fill="url(#tractor-body)"/>
    <path d="M254 73h13v57h-13z" fill="#1f2937"/>
    <path d="M247 70h28l-4-14h-20z" fill="#111827"/>
    <path d="M207 125h48c12 0 22 8 24 20l1 5h-85l3-13c1-7 5-12 9-12z" fill="#22c55e"/>
    <circle cx="126" cy="156" r="43" fill="#1f2937"/>
    <circle cx="126" cy="156" r="31" fill="#374151"/>
    <circle cx="126" cy="156" r="20" fill="#facc15"/>
    <circle cx="126" cy="156" r="9" fill="#92400e"/>
    <circle cx="258" cy="158" r="28" fill="#1f2937"/>
    <circle cx="258" cy="158" r="19" fill="#374151"/>
    <circle cx="258" cy="158" r="12" fill="#facc15"/>
    <path d="M159 92c9 7 15 16 17 28" fill="none" stroke="#374151" stroke-width="6" stroke-linecap="round"/>
    <circle cx="152" cy="87" r="7" fill="#7c2d12"/>
    <path d="M143 95l17 17" stroke="#7c2d12" stroke-width="5" stroke-linecap="round"/>
  </g>
</svg>
