<svg xmlns="http://www.w3.org/2000/svg" viewBox="0 0 360 220" role="img" aria-label="Sementes para plantio">
  <defs>
    <linearGradient id="seed-bg" x1="0" x2="1" y1="0" y2="1">
      <stop offset="0" stop-color="#fffdf5"/>
      <stop offset="1" stop-color="#f3f8e8"/>
    </linearGradient>
    <linearGradient id="seed-bag" x1="111" x2="211" y1="45" y2="184" gradientUnits="userSpaceOnUse">
      <stop offset="0" stop-color="#f3d49a"/>
      <stop offset="1" stop-color="#c37b36"/>
    </linearGradient>
    <filter id="seed-shadow" x="-20%" y="-20%" width="140%" height="160%">
      <feDropShadow dx="0" dy="9" stdDeviation="8" flood-color="#713f12" flood-opacity=".16"/>
    </filter>
  </defs>
  <rect width="360" height="220" rx="28" fill="url(#seed-bg)"/>
  <ellipse cx="182" cy="179" rx="120" ry="16" fill="#713f12" opacity=".1"/>
  <g filter="url(#seed-shadow)">
    <path d="M111 54h97l18 125H92z" fill="url(#seed-bag)"/>
    <path d="M102 46h115v23H102z" fill="#9a5f2d"/>
    <path d="M117 75h82l10 92H104z" fill="#e5b56d" opacity=".45"/>
    <path d="M132 105c20-18 43-27 70-29-2 34-27 55-70 29z" fill="#22c55e"/>
    <path d="M127 111c29 0 51 10 66 31-29 16-56 6-66-31z" fill="#15803d"/>
    <path d="M129 128c27-22 51-38 73-49" fill="none" stroke="#166534" stroke-width="7" stroke-linecap="round"/>
    <path d="M234 155c30-18 59-15 84 6-16 29-71 25-84-6z" fill="#eab308"/>
    <circle cx="252" cy="147" r="6" fill="#facc15"/>
    <circle cx="271" cy="145" r="6" fill="#facc15"/>
    <circle cx="290" cy="151" r="6" fill="#facc15"/>
    <circle cx="242" cy="164" r="6" fill="#facc15"/>
    <circle cx="260" cy="164" r="6" fill="#facc15"/>
    <circle cx="279" cy="168" r="6" fill="#facc15"/>
    <circle cx="299" cy="168" r="6" fill="#facc15"/>
  </g>
</svg>
